<?xml version="1.0" standalone="no"?>
<!DOCTYPE svg PUBLIC "-//W3C//DTD SVG 1.1//EN" "http://www.w3.org/Graphics/SVG/1.1/DTD/svg11.dtd" >
<!--
2013-9-30: Created.
-->
<svg>
<metadata>
Created by iconfont
</metadata>
<defs>

<font id="iconfont" horiz-adv-x="1024" >
  <font-face
    font-family="iconfont"
    font-weight="500"
    font-stretch="normal"
    units-per-em="1024"
    ascent="896"
    descent="-128"
  />
    <missing-glyph />
    
    <glyph glyph-name="javafill-copy" unicode="&#58888;" d="M758.60954112 738.37985223c-31.0689189-21.84533333-61.65238557-40.77795555-95.14856334-67.96326002-25.24349667-20.38897778-70.87596999-48.54518557-73.30323001-86.8958811-3.88361443-57.76876999 85.43952555-111.16847445 37.86524444-184.47170332-17.9617189-28.15620779-48.54518557-39.80705223-86.8958811-56.79786667-4.8545189 8.2526811 10.19448889 15.53445888 16.50536334 24.27259221 59.22512555 85.92497778-61.65238557 114.56663666-46.11792668 219.90968889s134.95561443 137.86832555 247.09499335 151.94643001zM380.928 385.45635555c-28.15620779-13.1072-74.75958557-15.53445888-95.14856334-43.69066666 20.87443001-15.53445888 50.97244445-15.04900779 78.6432-16.50536334 114.56663666-5.33996999 257.77493333 4.36906667 355.83620779 21.84533333 3.39816334-7.28177778-13.59265223-19.41807445-24.27259222-27.18530333-61.65238557-45.14702222-253.40586667-57.76876999-385.44877113-49.03063665-44.1761189 2.91271111-145.63555555 14.56355555-146.60645888 54.37060665-1.45635555 48.05973333 122.8193189 53.39970333 173.79176335 56.79786666 10.19448889 0.97090333 28.64165888 4.8545189 43.69066666 2.91271112z m-56.79786667-122.33386666c12.62174777-1.45635555-8.73813333-9.22358557-5.33996999-18.93262222 46.60337778-46.11792555 192.23893333-33.01072555 263.60035556-18.93262222 15.04900779 2.91271111 30.09801443 12.13629667 40.77795555 10.67994112 27.18530333-2.42725888 44.66156999-33.98163001 67.96325888-37.86524445C608.11946667 160.69214777000002 448.89125888 143.21588110000005 332.38281443 165.54666667000004c-30.09801443 5.82542222-82.52681443 21.84533333-83.98316998 46.11792554-2.42725888 33.01072555 51.94334777 46.60337778 76.21594112 51.45789668z m35.43798557-111.16847446c8.2526811-2.91271111-2.91271111-7.28177778-2.91271111-10.67993998 24.75804445-42.71976334 147.09191111-27.67075555 209.22974776-13.59265223 12.62174777 2.91271111 24.75804445 11.65084445 35.43798557 10.67994112 31.55436999-1.94180779 43.69066667-34.95253333 70.39051776-40.77795555-86.8958811-52.91425223-296.6110811-74.27413333-383.02151111-8.25268224-3.88361443 48.54518557 34.95253333 53.88515555 70.3905189 62.62328888z m-79.12865223-81.5559111c-25.72894777-6.31087445-92.72130333 2.91271111-95.14856334-32.52527332-0.97090333-13.59265223 22.81623666-29.61256334 37.86524444-35.43798556 88.35223666-33.49617778 266.51306667-38.35069667 412.63407445-21.84533334 67.96325888 7.76723001 195.63709667 30.58346667 179.13173333 100.48853334 20.38897778-2.42725888 38.35069667-15.53445888 40.77795556-35.43798557 8.2526811-74.75958557-164.08272555-106.31395555-233.50234112-114.08118443-151.46097778-16.50536334-340.30174777-13.1072-456.32473998 27.18530333-37.86524445 13.1072-83.4977189 37.37979221-81.55591111 73.30323001 3.39816334 60.6814811 150.00462222 77.67229667 195.63709553 37.86524444z m231.0750811-225.24965888c-101.94488889 11.16539221-200.00616334 26.2144-282.53297778 62.62328888 216.02607445-51.94334777 530.59887445-48.05973333 681.5744 62.62328889 8.2526811 5.82542222 15.53445888 17.47626667 27.18530446 16.50536335-37.86524445-114.08118557-183.98625223-121.84841443-309.71828224-141.2664889h-116.50844444zM581.90506667 922.8515555500001c18.93262222-17.9617189 32.52527445-51.45789667 32.52527445-86.8958811 0-104.8576-111.16847445-166.02453333-165.53908224-236.41505223-12.13629667-15.53445888-27.18530333-39.80705223-27.18530333-65.05054777 0.48545223-57.2833189 59.71057778-121.36296334 81.55591112-168.45179335-37.86524445 24.75804445-83.98316999 58.25422222-116.99389668 97.57582223S321.21742222 567.0153477700001 351.31543666 621.8714077899999c44.66156999 82.52681443 178.16083001 131.55745223 225.24966001 219.90968888 11.65084445 21.3598811 20.38897778 54.37060779 5.33997 81.55591112z m160.19911111-565.06595555c55.82696334 47.5742811 150.49007445 29.12711111 154.85914112-51.45789667 4.8545189-94.66311111-99.03217778-147.57736334-173.79176335-151.94642888 34.95253333 33.01072555 126.70293333 86.41043001 108.74121444 163.11182222-7.28177778 31.0689189-46.11792555 49.51608889-89.80859221 40.77795556z m0 0"  horiz-adv-x="1024" />

    
    <glyph glyph-name="Order-Details-SeeMore" unicode="&#59094;" d="M265.452 647.68c0 6.695 2.56 13.627 7.483 18.747a24.576 24.576 0 0 0 35.998 0l222.011-231.463 222.011 231.463a24.576 24.576 0 0 0 35.998 0 27.175 27.175 0 0 0 0-37.494l-240.01-250.25a24.576 24.576 0 0 0-35.998 0l-240.01 250.29a26.545 26.545 0 0 0-7.483 18.746zM265.452 371.988c0 6.695 2.56 13.627 7.483 18.747a24.576 24.576 0 0 0 35.998 0L530.944 159.27l222.011 231.464a24.576 24.576 0 0 0 35.998 0 27.175 27.175 0 0 0 0-37.494l-240.01-250.25a24.576 24.576 0 0 0-35.998 0L272.935 353.28a26.545 26.545 0 0 0-7.483 18.747z"  horiz-adv-x="1024" />

    
    <glyph glyph-name="weibiaoti-1_shouji" unicode="&#58960;" d="M780.8 832H243.2a25.6 25.6 0 0 1-25.6-25.6v-844.8a25.6 25.6 0 0 1 25.6-25.6h537.6a25.6 25.6 0 0 1 25.6 25.6V806.4a25.6 25.6 0 0 1-25.6 25.6zM440.832 763.328a16.256 16.256 0 0 0 10.048 4.288h122.176a15.552 15.552 0 0 0 15.36-16.32 15.552 15.552 0 0 0-15.36-16.32H450.88a15.104 15.104 0 0 0-10.56 4.288 15.36 15.36 0 0 0-4.8 12.032 14.848 14.848 0 0 0 5.312 12.032z m106.24-776.896a49.408 49.408 0 0 0-70.4 0 48.256 48.256 0 0 0-14.848 35.072 47.488 47.488 0 0 0 14.848 35.584 48.832 48.832 0 0 0 35.136 14.464 49.408 49.408 0 0 0 50.048-50.048 48.896 48.896 0 0 0-14.784-35.072z m181.696 112.064H294.4V669.504h434.56z"  horiz-adv-x="1024" />

    
    <glyph glyph-name="mima" unicode="&#58894;" d="M818.398966 469.336998V597.351492S818.359984 896 519.750458 896 221.101949 597.351492 221.101949 597.351492V469.336998H93.087456V-128h853.327003V469.336998H818.398966zM562.408962 139.850584v-139.836091h-85.317008v139.836091c-25.3814 14.786242-42.658504 42.025793-42.658504 73.49541 0 47.165444 38.230527 85.35599 85.317008 85.35599s85.317007-38.190546 85.317007-85.35599c0.039982-31.469617-17.237122-58.709168-42.658503-73.49541m170.673996 329.525397H306.418957v127.421764c0.474783 35.739666 13.047037 213.885248 213.331501 213.885248s212.856718-178.145582 213.331501-213.331501v-127.975511z"  horiz-adv-x="1024" />

    
    <glyph glyph-name="yanzhengmamima" unicode="&#58990;" d="M554.666667 213.333333v-85.333333h85.333333a42.666667 42.666667 0 0 0 0-85.333333h-85.333333v-42.666667a42.666667 42.666667 0 0 0-85.333334 0v386.133333C324.608 400.981333 213.333333 489.898667 213.333333 597.333333c0 117.802667 133.717333 213.333333 298.666667 213.333334s298.666667-95.530667 298.666667-213.333334c0-107.477333-111.274667-196.394667-256-211.2V298.666667h85.333333a42.666667 42.666667 0 0 0 0-85.333334h-85.333333z m-42.666667 298.666667a85.333333 85.333333 0 1 1 0 170.666667 85.333333 85.333333 0 0 1 0-170.666667z"  horiz-adv-x="1024" />

    
    <glyph glyph-name="icon_gitee" unicode="&#58887;" d="M966.524718 495.327179H456.520205c-24.497231 0-44.347077-19.954872-44.347077-44.557128v-133.540102c0-24.602256 19.849846-44.530872 44.347077-44.530872h288.295385c33.266872 0 44.320821-11.132718 44.347077-44.530872 0.026256-89.035487-50.884923-133.566359-133.041231-133.566359h-376.779487c-24.602256 0-44.530872 19.954872-44.530872 44.530872v400.67282c0 73.780513 59.575795 133.592615 133.014974 133.592616h598.593641c24.470974 0 44.320821 19.928615 44.320821 44.504615V851.469128C1010.740513 876.071385 990.916923 896 966.419692 896H367.826051C171.979487 896 13.128205 736.544821 13.128205 539.831795v-623.32718C13.128205-108.045128 32.978051-128 57.475282-128h598.646154c196.187897 0 352.439795 170.325333 354.619077 367.327179 0.131282 11.106462 0.131282 200.33641 0.131282 211.442872a44.478359 44.478359 0 0 1-44.347077 44.530872z"  horiz-adv-x="1024" />

    
    <glyph glyph-name="QQ" unicode="&#58961;" d="M785.066667 170.666667c-4.266667-55.466667-29.866667-106.666667-72.533334-140.8 38.4-17.066667 93.866667-34.133333 93.866667-72.533334H217.6c0 34.133333 55.466667 55.466667 89.6 72.533334-38.4 38.4-64 89.6-72.533333 140.8v17.066666l-72.533334-72.533333c-17.066667-17.066667-34.133333-17.066667-34.133333 38.4 0 34.133333 110.933333 302.933333 110.933333 302.933333v85.333334c4.266667 153.6 128 273.066667 281.6 268.8 145.066667-4.266667 260.266667-119.466667 264.533334-264.533334v-89.6s110.933333-268.8 110.933333-302.933333c0-55.466667-17.066667-55.466667-38.4-34.133333-55.466667 51.2-72.533333 72.533333-72.533333 72.533333v-21.333333z"  horiz-adv-x="1024" />

    
    <glyph glyph-name="Userpersonalinform" unicode="&#60052;" d="M929.15201264 53.56479105000005c-7.04228819 23.06004175-31.62125485 35.9018614-54.5432125 28.99765728-23.06004175-7.04228819-36.03994548-31.62125485-28.99765729-54.6812966 10.21822208-33.14017975 15.32733314-67.79928442 15.32733314-102.87264131 0-24.1647144 19.6079397-43.77265408 43.77265409-43.77265409s43.77265408 19.6079397 43.77265408 43.77265409c-0.13808409 43.77265408-6.62803595 87.13105594-19.33177152 128.55628063zM778.0880266 271.32338883c-29.68807769 22.92195766-61.7235848 41.56330877-95.41610087 55.92405334 81.19344039 55.09554883 134.63198025 148.02613623 134.63198024 253.38429102 0 168.73874859-137.2555778 305.99432638-305.99432639 305.99432639s-305.99432638-137.2555778-305.99432639-305.99432639c0-105.35815481 53.57662394-198.42682627 134.77006434-253.52237511C184.05030453 260.41474633999997 74.27345909 105.34632192000004 74.27345909-74.85340549c0-24.1647144 19.6079397-43.77265408 43.77265409-43.77265409s43.77265408 19.6079397 43.77265408 43.77265409c0 192.7653789 156.86351749 349.62889639 349.62889641 349.62889639 78.01750651 0 151.75440645-25.13130297 213.33990716-72.63222729 19.05560336-14.7749968 46.53433573-11.18481067 61.30933254 7.87079269 14.63691274 19.05560336 11.04672658 46.53433573-8.00887677 61.30933253z m-485.3655493 309.30834436c0 120.54740385 98.03969843 218.58710228 218.58710228 218.5871023s218.58710228-98.03969843 218.58710229-218.5871023-98.03969843-218.58710228-218.58710229-218.58710228-218.58710228 98.17778252-218.58710228 218.58710228zM831.80273461 136.27715635000004m-43.77265408 0a43.77265408 43.77265408 0 1 1 87.54530817 0 43.77265408 43.77265408 0 1 1-87.54530817 0Z"  horiz-adv-x="1024" />

    
    <glyph glyph-name="setting" unicode="&#58884;" d="M896 256a128 128 0 0 1 0 256H873.813333a381.064533 381.064533 0 0 1-15.428266 37.410133l15.633066 15.633067a128 128 0 0 1-180.974933 180.974933l-15.633067-15.633066a374.306133 374.306133 0 0 1-37.410133 15.428266v22.186667a128 128 0 0 1-256 0V745.8133330000001a374.306133 374.306133 0 0 1-37.410133-15.428266l-15.633067 15.633066a128 128 0 0 1-180.974933-180.974933l15.633066-15.633067a391.168 391.168 0 0 1-15.428266-37.410133h-22.186667a128 128 0 0 1 0-256H150.186667a391.168 391.168 0 0 1 15.428266-37.410133l-15.633066-15.633067a128 128 0 0 1 180.974933-180.974933l15.633067 15.633066a374.306133 374.306133 0 0 1 37.410133-15.428266v-22.186667a128 128 0 0 1 256 0V22.186667000000057a374.306133 374.306133 0 0 1 37.410133 15.428266l15.633067-15.633066a128 128 0 0 1 180.974933 180.974933l-15.633066 15.701333a373.1456 373.1456 0 0 1 15.428266 37.341867h22.186667z m-67.242667-98.304a64.170667 64.170667 0 0 0 0-90.453333 65.7408 65.7408 0 0 0-90.453333 0l-49.288533 49.288533-21.162667-11.810133a319.146667 319.146667 0 0 0-68.266667-28.330667l-23.278933-6.826667v-69.768533a64.034133 64.034133 0 0 0-128.068267 0V69.97333300000003l-23.278933 6.826667a316.279467 316.279467 0 0 0-68.266667 28.330667l-21.162666 11.810133-49.288534-49.288533a65.7408 65.7408 0 0 0-90.453333 0 64.170667 64.170667 0 0 0 0 90.453333l49.220267 49.288533-11.810134 21.162667a318.6688 318.6688 0 0 0-28.2624 68.266667l-6.826666 23.210666H128.341333a64.034133 64.034133 0 0 0 0 128.068267H197.973333L204.8 471.381333a319.556267 319.556267 0 0 0 28.2624 68.266667l11.810133 21.162667-49.220266 49.288533a64.170667 64.170667 0 0 0 0 90.453333 65.7408 65.7408 0 0 0 90.453333 0l49.288533-49.220266 21.162667 11.810133a316.142933 316.142933 0 0 0 68.266667 28.2624l23.278933 6.826667V768a64.034133 64.034133 0 0 0 128.068267 0V698.026667l23.278933-6.826667a318.941867 318.941867 0 0 0 68.266667-28.2624l21.162666-11.810133 49.288534 49.220266a65.7408 65.7408 0 0 0 90.453333 0 64.170667 64.170667 0 0 0 0-90.453333l-49.220267-49.288533 11.741867-21.162667a317.166933 317.166933 0 0 0 28.330667-68.266667l6.826666-23.278933h69.768534a64.034133 64.034133 0 0 0 0-128.068267H826.026667l-6.826667-23.210666a317.713067 317.713067 0 0 0-28.330667-68.266667l-11.741866-21.162667zM512 576.034133A192.034133 192.034133 0 1 1 704.034133 384 192.170667 192.170667 0 0 1 512 576.034133z m0-320.034133A128 128 0 1 0 640 384 128.136533 128.136533 0 0 0 512 256z"  horiz-adv-x="1024" />

    
    <glyph glyph-name="quit" unicode="&#58885;" d="M1063.230649 412.422205L791.818608 683.834246a40.031274 40.031274 0 0 1-56.043784 0 40.031274 40.031274 0 0 1 0-56.84441l202.558249-202.558249H469.967162a40.031274 40.031274 0 0 1-40.031275-40.031274 40.031274 40.031274 0 0 1 40.031275-40.031275h468.365911L735.774824 141.01016400000003a38.430023 38.430023 0 0 1 0-56.043784 37.629398 37.629398 0 0 1 28.021892-12.009382 37.629398 37.629398 0 0 1 28.021892 12.009382l271.412041 270.611415a40.8319 40.8319 0 0 1 0 56.84441zM511.599687-47.93745100000001A432.337764 432.337764 0 0 0 80.062549 384.400313 432.337764 432.337764 0 0 0 511.599687 815.937451a40.031274 40.031274 0 0 1 40.031275 40.031275 40.031274 40.031274 0 0 1-40.031275 40.031274A512.400313 512.400313 0 0 1 0 384.400313a512.400313 512.400313 0 0 1 511.599687-512.400313 40.031274 40.031274 0 0 1 40.031275 40.031274 40.031274 40.031274 0 0 1-40.031275 40.031275z"  horiz-adv-x="1075" />

    
    <glyph glyph-name="xiala" unicode="&#58881;" d="M324.288 384l256 256L640 580.288 443.71200001 384 640 187.712l-59.712-59.712z"  horiz-adv-x="1024" />

    
    <glyph glyph-name="xiala-copy" unicode="&#58882;" d="M699.712 384l-256-256L384 187.712 580.28799999 384 384 580.288l59.712 59.712z"  horiz-adv-x="1024" />

    
    <glyph glyph-name="pencil" unicode="&#59153;" d="M995.69376 611.830321l-92.190163-92.190164c-9.398997-9.398997-24.597375-9.398997-33.996373 0l-221.976315 221.976316c-9.398997 9.398997-9.398997 24.597375 0 33.996372l92.190163 92.190164c37.39601 37.39601 98.189523 37.39601 135.785512 0l120.187176-120.187177c37.595989-37.39601 37.595989-98.189523 0-135.785511zM568.339359 696.421295L43.195391 171.277327 0.799915-71.69674799999996c-5.799381-32.796501 22.797568-61.193471 55.594068-55.594068l242.974075 42.595455 525.143967 525.143968c9.398997 9.398997 9.398997 24.597375 0 33.996373l-221.976315 221.976315c-9.598976 9.398997-24.797354 9.398997-34.196351 0zM248.17352 216.27252599999997c-10.998826 10.998826-10.998826 28.596949 0 39.595776l307.96714 307.96714c10.998826 10.998826 28.596949 10.998826 39.595775 0s10.998826-28.596949 0-39.595775l-307.96714-307.967141c-10.998826-10.998826-28.596949-10.998826-39.595775 0zM175.981223 48.09047099999998h95.989758v-72.592254l-128.986237-22.597589-62.193364 62.193364L103.388968 144.08022900000003H175.981223v-95.989758z"  horiz-adv-x="1024" />

    
    <glyph glyph-name="heart" unicode="&#58921;" d="M1000 648Q976.992 704 933.984 747.008 849.984 832 732.992 832q-64 0-121.504-28T512 724.992q-42.016 51.008-99.488 79.008T291.008 832Q174.016 832 90.016 745.984 47.008 702.976 24 646.976-0.992 587.968 0 524.96q0.992-68.992 28.992-130.496t79.008-104.512q4.992-4 8.992-8 14.016-12 112.992-102.016 208-191.008 256.992-235.008 11.008-8.992 24.992-8.992t24.992 8.992q32.992 30.016 180.992 164.992 158.016 144 196 179.008 52 43.008 80.992 104.992t28.992 132q0 64-24 122.016z"  horiz-adv-x="1024" />

    
    <glyph glyph-name="heart1" unicode="&#58987;" d="M562.573853-41.017034a24.974181 24.974181 0 0 1 18.602636 7.907543l395.149564 395.149563a270.79066 270.79066 0 0 1 80.099422 192.568568 270.619993 270.619993 0 0 1-79.701201 193.023678 270.392438 270.392438 0 0 1-192.625456 79.644312 270.619993 270.619993 0 0 1-177.208594-65.251447l-44.487037-38.001714-44.373259 38.172381A269.937328 269.937328 0 0 1 340.53689 827.73174a269.652884 269.652884 0 0 1-192.568568-79.7012A270.619993 270.619993 0 0 1 68.267122 555.006862c0-72.703879 28.330619-140.799765 80.099422-192.568568l395.547785-395.547785a25.201736 25.201736 0 0 1 18.659524-7.964432z m-66.901221-40.391044L100.124846 314.139708A338.317658 338.317658 0 0 0 0.000569 555.006862c0 91.078959 35.271052 176.867261 99.726056 241.265375A337.919437 337.919437 0 0 0 340.593779 895.998293c82.033641 0 159.971289-28.728841 221.980074-82.09053A338.886546 338.886546 0 0 0 784.098818 895.600072c90.680738 0 176.469039-35.271052 240.867154-99.726056A338.886546 338.886546 0 0 0 1124.692028 554.665529a339.057213 339.057213 0 0 0-100.124278-240.867154l-395.149563-395.149564a92.728734 92.728734 0 0 0-66.844334-27.875509c-25.48618 0-48.867474 9.841761-66.901221 27.875509z"  horiz-adv-x="1137" />

    
    <glyph glyph-name="zan-" unicode="&#58891;" d="M828.8 528h-230.4c12.8 35.2 19.2 70.4 22.4 105.6 3.2 54.4-3.2 105.6-25.6 144-25.6 48-70.4 76.8-128 83.2-25.6 3.2-48 0-67.2-16-35.2-22.4-41.6-76.8-48-134.4-6.4-48-12.8-102.4-38.4-140.8-16-25.6-48-60.8-131.2-60.8h-12.8c-57.6 0-105.6-48-105.6-105.6v-393.6C64-48 112-96 169.6-96h569.6c28.8 0 57.6 9.6 80 28.8 22.4 19.2 38.4 41.6 44.8 70.4l89.6 371.2c9.6 38.4 0 76.8-25.6 108.8-22.4 28.8-57.6 44.8-99.2 44.8z"  horiz-adv-x="1024" />

    
    <glyph glyph-name="comments" unicode="&#58899;" d="M682.666667 123.615573c-22.183253 0-45.755733 1.937067-70.71232 5.819733l-169.70752-161.389227L442.246827 186.837333c-54.350507 31.059627-97.196373 70.71232-128.530773 118.964907-31.3344 48.249173-47.0016 100.381013-47.0016 156.39552 0 61.008213 18.578773 117.43744 55.739733 169.294507 37.15584 51.85536 87.625387 92.893867 151.40352 123.12064C537.639253 784.837973 607.238827 799.952213 682.666667 799.952213c75.42784 0 145.027413-15.11424 208.80896-45.341013 63.778133-30.225067 114.249387-71.263573 151.40352-123.12064 37.16096-51.85536 55.739733-108.424533 55.739733-169.70752 0-61.284693-18.578773-117.855573-55.739733-169.70752-37.15584-51.857067-87.625387-92.898987-151.40352-123.12576C827.69408 138.7264 758.094507 123.615573 682.666667 123.615573L682.666667 123.615573 682.666667 123.615573zM463.87712 539.569493c-18.304 0-33.83296-7.492267-46.588587-22.463147-12.755627-14.972587-19.136853-33.276587-19.136853-54.90688 0-21.630293 6.381227-40.067413 19.136853-55.3216 12.75392-15.254187 28.284587-22.877867 46.588587-22.877867 18.29888 0 33.82784 7.625387 46.583467 22.877867 12.75904 15.254187 19.136853 33.6896 19.136853 55.3216 0 21.630293-6.377813 39.934293-19.136853 54.90688C497.70496 532.077227 482.176 539.569493 463.87712 539.569493L463.87712 539.569493 463.87712 539.569493zM682.666667 539.569493c-18.304 0-33.83296-7.492267-46.588587-22.463147-12.75392-14.972587-19.131733-33.276587-19.131733-54.90688 0-21.630293 6.377813-40.067413 19.131733-55.3216 12.755627-15.254187 28.284587-22.877867 46.588587-22.877867s33.83296 7.625387 46.588587 22.877867c12.75392 15.254187 19.131733 33.6896 19.131733 55.3216 0 21.630293-6.377813 39.934293-19.131733 54.90688C716.499627 532.077227 700.970667 539.569493 682.666667 539.569493L682.666667 539.569493 682.666667 539.569493zM901.456213 539.569493c-18.29888 0-33.82784-7.492267-46.583467-22.463147-12.75904-14.972587-19.136853-33.276587-19.136853-54.90688 0-21.630293 6.377813-40.067413 19.136853-55.3216 12.75392-15.254187 28.284587-22.877867 46.583467-22.877867 18.304 0 33.83296 7.625387 46.588587 22.877867 12.755627 15.254187 19.136853 33.6896 19.136853 55.3216 0 21.630293-6.381227 39.934293-19.136853 54.90688C935.289173 532.077227 919.760213 539.569493 901.456213 539.569493L901.456213 539.569493 901.456213 539.569493z"  horiz-adv-x="1366" />

    
    <glyph glyph-name="zuozhe" unicode="&#58973;" d="M507.087 896c19.871 0 39.562-2.212 59.082-6.637 19.523-4.428 37.844-10.393 54.968-17.885 17.132-7.496 32.37-16.009 45.728-25.55 13.358-9.533 23.805-19.07 31.338-28.611 17.808-21.798 30.823-45.808 39.047-72.038 8.22-26.226 14.042-51.26 17.465-75.106 3.423-27.247 5.134-54.837 5.134-82.767 4.798-3.404 8.564-7.833 11.307-13.281 2.743-4.768 4.966-10.901 6.677-18.394 1.715-7.493 1.887-16.689 0.516-27.59-1.368-14.305-4.278-25.718-8.732-34.231-4.454-8.517-9.42-15.157-14.901-19.926-6.162-5.449-12.667-9.197-19.52-11.241-3.423-11.581-6.849-22.478-10.279-32.699-3.419-8.857-7.361-17.541-11.815-26.054-4.45-8.517-9.416-15.157-14.894-19.929-13.018-10.217-23.634-18.902-31.854-26.058-8.22-7.149-13.702-19.242-16.437-36.271-2.059-10.221-2.746-20.609-2.059-31.167 0.688-10.557 3.598-21.118 8.732-31.675 5.134-10.561 13.018-20.609 23.637-30.146 10.619-9.537 25.513-18.05 44.693-25.546 17.128-6.809 35.792-12.941 56-18.39 20.207-5.452 39.903-11.753 59.079-18.905 19.18-7.156 36.136-16.009 50.866-26.566 14.729-10.564 25.169-25.038 31.335-43.428 3.426-10.904 5.993-24.354 7.708-40.363 1.711-16.009 2.571-32.19 2.571-48.54s-1.199-31.675-3.598-45.98c-2.399-14.313-5.993-25.21-10.787-32.702-3.426-4.768-13.19-9.533-29.287-14.305-16.097-4.768-35.957-9.369-59.591-13.797-23.634-4.421-50.006-8.341-79.118-11.745-29.115-3.408-58.398-6.301-87.854-8.685-29.455-2.388-57.707-4.264-84.767-5.624-27.053-1.364-50.514-2.041-70.385-2.041-19.864 0-42.982 0.677-69.35 2.041-26.376 1.36-53.601 3.236-81.688 5.624-28.084 2.384-56 5.105-83.74 8.173-27.744 3.068-52.917 6.304-75.519 9.705-22.606 3.408-41.786 6.816-57.543 10.221-15.757 3.408-25.685 6.812-29.795 10.217-6.853 5.449-12.159 22.142-15.929 50.072-3.766 27.927-2.223 64.037 4.622 108.313 3.43 25.206 13.53 44.452 30.315 57.733 16.781 13.281 36.304 23.846 58.563 31.679 22.266 7.833 45.384 14.814 69.361 20.946 23.974 6.132 45.205 14.989 63.701 26.57 14.389 8.857 25.345 17.37 32.882 25.542 7.537 8.177 13.018 16.353 16.444 24.526 3.419 8.177 5.134 16.689 5.134 25.546 0 8.857-0.347 18.734-1.028 29.631-1.371 15.669-6.853 28.102-16.441 37.299s-20.207 18.562-31.85 28.102c-5.478 4.768-10.275 11.409-14.386 19.926-4.11 8.513-7.877 17.198-11.303 26.054-3.426 10.221-6.853 21.118-10.279 32.699-4.79 1.364-9.588 3.748-14.382 7.153-4.11 3.408-8.564 8.177-13.358 14.305-4.79 6.132-8.901 14.989-12.327 26.57-4.11 11.577-5.653 22.138-4.626 31.675 1.028 9.54 2.911 17.713 5.65 24.526 2.743 7.493 7.193 14.645 13.358 21.458-0.684 25.886 0.687 51.772 4.11 77.659 2.739 21.798 7.708 45.304 14.898 70.51 7.193 25.202 17.984 47.684 32.37 67.438 13.014 19.077 27.568 34.578 43.665 46.496 16.101 11.921 32.542 21.29 49.322 28.102 16.781 6.809 33.565 11.409 50.346 13.79C475.065 894.808 491.334 896 507.087 896L507.087 896z"  horiz-adv-x="1024" />

    
    <glyph glyph-name="comments1" unicode="&#58892;" d="M832 110.933333h-264.533333l-281.6-230.4v4.266667c-21.333333 0-29.866667 8.533333-29.866667 17.066667v17.066666-4.266666 196.266666H192c-106.666667 0-192 85.333333-192 192v512C0 849.066667 29.866667 878.933333 64 878.933333h896c34.133333 0 64-29.866667 64-64v-512c0-106.666667-85.333333-192-192-192zM221.866667 405.333333c0-17.066667 12.8-34.133333 34.133333-34.133333h341.333333c17.066667 0 34.133333 12.8 34.133334 34.133333v17.066667c0 17.066667-12.8 34.133333-34.133334 34.133333H256c-17.066667 0-34.133333-12.8-34.133333-34.133333v-17.066667zM853.333333 635.733333c0 17.066667-12.8 34.133333-34.133333 34.133334H196.266667c-17.066667 0-29.866667-12.8-29.866667-34.133334v-17.066666c0-17.066667 12.8-34.133333 29.866667-34.133334h627.2c17.066667 0 29.866667 12.8 29.866666 29.866667v21.333333z"  horiz-adv-x="1024" />

    
    <glyph glyph-name="reading" unicode="&#58895;" d="M568.888889 811.273481v-797.696C540.558222 59.27822200000003 491.026963 99.55555600000002 404.555852 99.55555600000002H37.925926V896h366.629926C472.064 896 532.100741 862.473481 568.888889 811.273481z m75.851852 0A202.372741 202.372741 0 0 0 809.073778 896H1175.703704v-796.444444h-366.629926c-86.471111 0-136.00237-39.291259-164.333037-84.309334V811.311407z m110.098963-930.322962l-68.494223 32.616296c31.55437 66.294519 100.503704 110.136889 173.321482 110.136889H1213.62963v-75.851852h-353.962667c-43.501037 0-85.82637-26.927407-104.827259-66.863408z m-227.555556 32.616296l-68.494222-32.616296A115.977481 115.977481 0 0 1 353.962667-52.14814799999999H0v75.851852h353.962667a191.829333 191.829333 0 0 0 173.321481-110.098963z"  horiz-adv-x="1213" />

    
    <glyph glyph-name="time1" unicode="&#58886;" d="M512.166513 896C229.254725 896 0 666.745275 0 383.993339s229.254725-511.993339 512.166513-511.993339S1024.38631 101.294689 1024.38631 383.993339 794.851843 896 512.166513 896z m206.742204-601.643793H475.786812c-1.878264 0-2.903982 1.545238-4.795567 1.731733-0.666051 0-1.025718-0.879187-1.878264-0.879188-5.967816 0.186494-10.430357 4.848851-15.70548 7.406487-4.462541 2.35782-9.577812 2.903982-12.974672 6.087705-2.757451 2.730809-2.903982 7.033498-4.96874 10.430357-3.609996 6.15431-8.725267 11.615928-8.725267 19.009093 0 0.812582 1.025718 1.332102 1.025719 2.184647s-1.025718 1.731732-1.025719 2.730809V675.750283c0 26.282369 19.128982 47.622641 42.50737 47.62264 23.578202 0 42.494048-21.313629 42.494048-47.62264v-294.181369h207.101872c27.161556 0 49.167879-19.462008 49.167879-43.533088s-21.953038-43.679619-49.101274-43.679619z m0 0"  horiz-adv-x="1024" />

    
    <glyph glyph-name="exit" unicode="&#58917;" d="M428.8 128 275.2 128c-44.8 0-83.2 38.4-83.2 83.2L192 556.8C185.6 601.6 224 640 275.2 640l153.6 0c6.4 0 12.8 6.4 12.8 12.8L441.6 684.8c0 6.4-6.4 12.8-12.8 12.8L275.2 697.6C192 697.6 128 633.6 128 556.8l0-339.2c0-83.2 64-147.2 147.2-147.2l153.6 0c6.4 0 12.8 6.4 12.8 12.8l0 32C441.6 121.6 435.2 128 428.8 128zM889.6 396.8 601.6 684.8C588.8 697.6 563.2 684.8 563.2 665.6L563.2 512 377.6 512c-38.4 0-64-25.6-64-64L313.6 320c0-38.4 25.6-64 64-64l185.6 0 0-160c0-19.2 25.6-32 38.4-19.2l288 281.6C896 371.2 896 390.4 889.6 396.8z"  horiz-adv-x="1024" />

    
    <glyph glyph-name="denglu" unicode="&#60051;" d="M728.7 384.1c0-9-3.3-16.8-9.9-23.5L435.4 77.2c-6.5-6.5-14.5-9.9-23.5-9.9s-16.8 3.3-23.5 9.9c-6.5 6.5-9.9 14.4-9.9 23.5v150H145.4c-9 0-16.8 3.3-23.5 9.9-6.5 6.5-9.9 14.4-9.9 23.5v200c0 9 3.3 16.8 9.9 23.5 6.5 6.5 14.4 9.9 23.5 9.9h233.3v150c0 9 3.3 16.8 9.9 23.5 6.5 6.5 14.4 9.9 23.5 9.9 9 0 16.8-3.3 23.5-9.9L719 407.6c6.3-6.8 9.7-14.5 9.7-23.5zM912 567.4v-366.6c0-41.3-14.7-76.7-44.1-106.1s-64.7-44.1-106.1-44.1H595.2c-4.5 0-8.5 1.6-11.7 4.9-3.3 3.3-4.9 7.2-4.9 11.7 0 1.4-0.2 4.8-0.5 10.4-0.3 5.6-0.4 10.2-0.2 13.8 0.2 3.6 0.6 7.8 1.5 12.2 0.9 4.5 2.7 7.9 5.3 10.2s6.1 3.4 10.6 3.4h166.8c22.9 0 42.5 8.1 58.9 24.4 16.3 16.3 24.4 35.9 24.4 58.9V567.4c0 22.9-8.3 42.5-24.4 58.9-16.3 16.3-35.9 24.4-58.9 24.4H599.6c-1.1 0-3.1 0.2-6 0.5-3 0.3-4.9 0.9-6 1.5-1.1 0.6-2.4 1.6-4.2 2.9-1.7 1.2-3 2.8-3.6 4.7-0.6 1.8-1.1 4.3-1.1 7 0 1.4-0.2 4.8-0.5 10.4s-0.4 10.2-0.2 13.8c0.2 3.6 0.6 7.8 1.5 12.2s2.7 7.9 5.3 10.2 6.1 3.4 10.6 3.4h166.8c41.3 0 76.7-14.7 106.1-44.1 29-29.1 43.7-64.5 43.7-105.8z"  horiz-adv-x="1024" />

    
    <glyph glyph-name="qukuailian" unicode="&#58883;" d="M789.939393 501.357607a229.658115 229.658115 0 0 1-166.96409-71.933146l-257.375474 126.047989v10.558994a131.987423 131.987423 0 0 1-5.939434 38.276352l359.00579 176.863146a65.993711 65.993711 0 0 1 43.555849-17.158365 65.993711 65.993711 0 1 1-65.993711 65.993712 65.993711 65.993711 0 0 1 0-11.878868L343.161968 641.264275a131.987423 131.987423 0 1 1 5.279496-142.546417l239.557172-117.468806a217.779247 217.779247 0 0 1-17.818302-180.162832l-263.974845-76.552705a164.984278 164.984278 0 1 1 23.757736-108.889623l298.951512 87.111699a230.977989 230.977989 0 1 1 159.044844 395.962267z"  horiz-adv-x="1024" />

    
    <glyph glyph-name="search" unicode="&#58880;" d="M400.696889 94.606222A400.668444 400.668444 0 1 0 400.696889 896a400.668444 400.668444 0 0 0 0-801.393778z m0 89.031111a311.637333 311.637333 0 1 1 0 623.331556 311.637333 311.637333 0 0 1 0-623.331556zM667.904 294.00177799999994l314.766222-314.823111-62.919111-62.976-314.823111 314.823111z"  horiz-adv-x="1024" />

    
    <glyph glyph-name="qita" unicode="&#58995;" d="M160.2 795.6c-22.1 0-40.1-18-40.1-40.1v-294.6c0-22 18-40.1 40.1-40.1h294.6c22.1 0 40.1 18.1 40.1 40.1V755.5c0 22-18 40.1-40.1 40.1H160.2z m0 0c-22.1 0-40.1-18-40.1-40.1v-294.6c0-22 18-40.1 40.1-40.1h294.6c22.1 0 40.1 18.1 40.1 40.1V755.5c0 22-18 40.1-40.1 40.1H160.2zM561.9 621c-15.6-15.6-15.6-41.1 0-56.7L732 394.2c15.6-15.6 41.1-15.6 56.7 0l170.1 170.1c15.6 15.6 15.6 41.1 0 56.7L788.7 791.1c-15.6 15.6-41.1 15.6-56.7 0L561.9 621z m0 0c-15.6-15.6-15.6-41.1 0-56.7L732 394.2c15.6-15.6 41.1-15.6 56.7 0l170.1 170.1c15.6 15.6 15.6 41.1 0 56.7L788.7 791.1c-15.6 15.6-41.1 15.6-56.7 0L561.9 621z m56.9-281c-22.1 0-40.1-18.1-40.1-40.1v-294.6c0-22.1 18-40.1 40.1-40.1h294.6c22 0 40.1 18 40.1 40.1V299.9c0 22-18 40.1-40.1 40.1H618.8z m0 0c-22.1 0-40.1-18.1-40.1-40.1v-294.6c0-22.1 18-40.1 40.1-40.1h294.6c22 0 40.1 18 40.1 40.1V299.9c0 22-18 40.1-40.1 40.1H618.8z m-458.6 0c-22.1 0-40.1-18.1-40.1-40.1v-294.6c0-22.1 18-40.1 40.1-40.1h294.6c22.1 0 40.1 18 40.1 40.1V299.9c0 22-18 40.1-40.1 40.1H160.2z m0 0c-22.1 0-40.1-18.1-40.1-40.1v-294.6c0-22.1 18-40.1 40.1-40.1h294.6c22.1 0 40.1 18 40.1 40.1V299.9c0 22-18 40.1-40.1 40.1H160.2z m0 0"  horiz-adv-x="1024" />

    
    <glyph glyph-name="nav_icon_Blockchain2" unicode="&#58957;" d="M266.4448 209.7664L348.0576 271.36 378.88 230.4l-80.5376-60.672a102.4 102.4 0 1 0-31.8976 40.0384zM512 643.2256a102.4 102.4 0 1 0 51.2 0V537.6h-51.2V643.2256z m263.6288-476.416L691.2 230.4l30.8224 40.9088 84.224-63.488a102.4 102.4 0 1 0-30.6176-41.0112z m130.2528 84.224a128.0512 128.0512 0 0 1-44.3392 4.6592v257.536a51.2 51.2 0 0 1-25.6 44.3392L642.56 669.184c8.448 12.0832 14.848 25.7024 18.7392 40.3968l218.9312-126.4128a51.2 51.2 0 0 0 25.6-44.3392v-287.7952z m-142.6944-193.024l-202.3936-116.8384a51.2 51.2 0 0 0-51.2 0l-198.912 114.8416c8.2944 12.2368 14.5408 25.9584 18.2784 40.6528l180.6336-104.2944a51.2 51.2 0 0 1 51.2 0l184.832 106.752c3.4816-14.848 9.472-28.672 17.5616-41.1136zM413.2352 711.9872c3.584-14.7968 9.728-28.5696 17.9712-40.8064L234.496 557.568a51.2 51.2 0 0 1-25.6-44.3392V256a130.3552 130.3552 0 0 1-44.3392-6.4v289.28a51.2 51.2 0 0 0 25.6 44.3392L413.184 711.9872zM204.8 77.2096a50.7904 50.7904 0 1 1 0 101.5808 50.7904 50.7904 0 0 1 0-101.5808z m332.8 614.4a50.7904 50.7904 0 1 1 0 101.5808 50.7904 50.7904 0 0 1 0-101.5808z m332.8-614.4a50.7904 50.7904 0 1 1 0 101.5808 50.7904 50.7904 0 0 1 0-101.5808zM535.1936 577.5872l193.28-111.616v-223.1808l-193.28-111.616-193.28 111.616v223.232l193.28 111.616z m0-51.2l-148.992-86.016v-171.9808l148.992-86.016 148.992 86.016v172.032l-148.992 86.016z"  horiz-adv-x="1075" />

    
    <glyph glyph-name="data-base" unicode="&#58971;" d="M511.993833 896C229.193814 896 0.006167 824.29484 0.006167 735.989208v-128.030833c0-88.354965 229.187648-159.998458 511.987666-159.998458s511.987667 71.70516 511.987667 159.998458V735.989208C1023.969167 824.29484 794.756853 896 511.993833 896z m0-544.066291C229.193814 351.933709 0.006167 423.675868 0.006167 511.993833v-192.003083c0-88.342631 229.187648-159.998458 511.987666-159.998458s511.987667 71.692827 511.987667 159.998458V511.907501c-0.012333-88.305632-229.224647-159.973792-511.987667-159.973792z m0-287.979958C229.193814 63.953751 0.006167 135.646577 0.006167 223.939876v-191.929084c0-88.367298 229.187648-160.010792 511.987666-160.010792s511.987667 71.70516 511.987667 160.010792V223.939876c0-88.342631-229.224647-159.998458-511.987667-159.998459z"  horiz-adv-x="1024" />

    
    <glyph glyph-name="mobile" unicode="&#58913;" d="M772.839 832.056h-521.853c-51.463 0-93.188-41.726-93.188-93.188v-708.231c0-51.47 41.726-93.187 93.188-93.187h521.854c51.453 0 93.188 41.718 93.188 93.187v708.231c0 51.462-41.736 93.188-93.189 93.188zM456 776.142h111.824c10.294 0 18.638-8.345 18.638-18.637s-8.344-18.637-18.638-18.637h-111.824c-10.294 0-18.637 8.345-18.637 18.637s8.343 18.637 18.637 18.637zM511.913-6.638c-30.879 0-55.912 25.036-55.912 55.912 0 30.878 25.033 55.915 55.912 55.915 30.888 0 55.912-25.037 55.912-55.915 0-30.876-25.025-55.912-55.912-55.912zM754.201 179.739h-484.577v503.215h484.577v-503.215z"  horiz-adv-x="1024" />

    
    <glyph glyph-name="youxiang" unicode="&#58916;" d="M153.6 732.4h716.8c48.9 0 89-38.6 89.6-86.1L512.2 403.1l-447.8 243c0.5 47.6 40.2 86.3 89.2 86.3zM64.4 553L64 122.7c0-47.9 40.3-87.1 89.6-87.1h716.8c49.3 0 89.6 39.2 89.6 87.1V553.2L522.7 321.3c-6.7-3.5-14.8-3.5-21.5 0L64.4 553z"  horiz-adv-x="1024" />

    
    <glyph glyph-name="git" unicode="&#58954;" d="M0 375.114c0 69.368 13.51 135.697 40.498 199.02 26.987 63.323 63.322 117.826 109.006 163.51 45.65 45.65 100.154 81.985 163.51 109.006A502.289 502.289 0 0 0 512 887.08c69.335 0 135.663-13.477 198.986-40.497 63.356-26.988 117.86-63.323 163.51-109.007 45.684-45.65 82.02-100.154 109.006-163.51A502.289 502.289 0 0 0 1024 375.148c0-111.318-32.504-211.472-97.511-300.494-64.975-88.989-148.48-150.825-250.484-185.476-5.351 0-9.348 0.99-11.99 2.973-2.676 1.982-4.196 3.997-4.526 6.012a59.458 59.458 0 0 0-0.495 8.984 7.663 7.663 0 0 0-0.991 3.006v128.99c0 40.63-14.336 75.314-43.008 103.986 76.667 13.345 134.011 41.819 171.999 85.487 37.987 43.669 57.013 96.52 57.013 158.522 0 58.005-18.663 108.346-56.022 150.99 13.345 42.678 11 87.668-6.97 135.003-18.697 1.322-39.011-1.85-61.01-9.513-22-7.663-38.318-14.831-49.02-21.47-10.637-6.673-20.316-13.016-28.97-19.027-38.68 10.669-81.854 16.02-129.486 16.02-47.7 0-90.509-5.351-128.529-16.02-7.333 5.35-15.855 11.164-25.5 17.507-9.68 6.342-26.493 14.005-50.507 22.99-23.982 9.018-45.65 12.85-65.008 11.495-18.663-47.996-20.645-93.646-5.979-136.984-36.665-42.678-54.998-92.986-54.998-150.99 0-62.002 18.663-114.689 55.99-157.994 37.326-43.339 94.67-72.01 171.998-86.016a142.303 142.303 0 0 1-39.969-70.029c-56.683-13.972-96.355-3.963-119.015 30.06-42.017 61.308-79.674 83.307-113.003 65.965-4.69-4.657-3.997-9.48 1.982-14.501 6.012-4.988 14.996-11.66 27.02-19.985 11.99-8.357 20.976-17.507 26.987-27.515 0.661-1.322 2.51-6.177 5.517-14.502a831.917 831.917 0 0 1 8.985-23.981c2.973-7.663 8.654-16.186 17.011-25.5 8.324-9.349 18.003-17.178 29.003-23.52 11-6.309 26.161-11 45.485-14.006 19.324-2.972 41.323-3.138 65.998-0.495v-100.484c0-0.991-0.165-2.643-0.495-5.021-0.33-2.312-0.991-3.964-1.982-4.955-0.991-1.024-2.345-2.015-4.03-3.039a12.52 12.52 0 0 0-6.474-1.486c-2.676 0-6.012 0.33-10.009 0.99-101.343 35.345-183.825 97.182-247.51 185.51C31.842 164.963 0 264.423 0 375.08z"  horiz-adv-x="1024" />

    
    <glyph glyph-name="moon" unicode="&#58996;" d="M514.048-41.088c-13.141333 0-26.325333 0.64-39.68 1.834667-234.282667 21.717333-407.253333 229.888-385.621333 464.128a426.837333 426.837333 0 0 0 385.621333 385.621333 42.666667 42.666667 0 0 0 38.229333-67.797333 254.293333 254.293333 0 0 1-47.274666-190.165334 254.08 254.08 0 0 1 101.034666-167.893333c88.746667-65.664 215.509333-65.664 304.298667 0a42.666667 42.666667 0 0 0 67.882667-38.229333 424.618667 424.618667 0 0 0-424.490667-387.498667zM397.312 706.56a341.546667 341.546667 0 0 1-223.573333-289.536c-17.28-187.434667 121.088-353.962667 308.48-371.285333a339.2 339.2 0 0 1 352.597333 223.701333 340.309333 340.309333 0 0 0-116.352-20.352 339.072 339.072 0 0 0-202.922667 66.858667 339.114667 339.114667 0 0 0-134.656 223.829333 340.309333 340.309333 0 0 0 16.426667 166.784z"  horiz-adv-x="1024" />

    
    <glyph glyph-name="sun" unicode="&#58896;" d="M512 97.523c-76.521 0-148.461 29.799-202.569 83.907-54.108 54.108-83.907 126.049-83.907 202.57s29.799 148.461 83.907 202.569C363.539 640.677 435.48 670.476 512 670.476s148.462-29.799 202.569-83.907c54.108-54.108 83.907-126.048 83.907-202.569s-29.799-148.462-83.907-202.569C660.462 127.322 588.521 97.523 512 97.523z m0 512.953c-124.879 0-226.476-101.597-226.476-226.476 0-124.88 101.597-226.477 226.476-226.477 124.88 0 226.477 101.597 226.477 226.477 0 124.879-101.597 226.476-226.477 226.476zM436.945 766L512 896l75.055-130zM188.813 601.042l-38.852 144.997 144.996-38.853zM130 308.945L0 384l130 75.055zM294.957 60.813l-144.996-38.852 38.853 144.996zM587.055 2L512-128l-75.055 130zM835.187 166.957l38.852-144.996-144.996 38.852zM894 459.055L1024.001 384 894 308.945zM729.043 707.187l144.996 38.853-38.852-144.997z"  horiz-adv-x="1024" />

    
    <glyph glyph-name="loginentersignininputaccess" unicode="&#58923;" d="M466.752 237.248a64 64 0 1 1 90.496-90.496l192 192a64 64 0 0 1 0 90.496l-192 192a64 64 0 1 1-90.496-90.496L549.504 448H64a64 64 0 0 1 0-128h485.504zM960 896H320a64 64 0 0 1-64-64v-128a64 64 0 0 1 128 0V768h512v-768H384v64a64 64 0 0 1-128 0v-128a64 64 0 0 1 64-64h640a64 64 0 0 1 64 64V832a64 64 0 0 1-64 64z"  horiz-adv-x="1024" />

    
    <glyph glyph-name="Exitwithoutchange" unicode="&#58918;" d="M1040.246524 374.987001c-1.757631 10.52523-7.021531 21.049174-15.790414 28.065566L770.098108 641.627864c-19.297967 19.296683-50.876226 19.296683-71.9254 0-10.523945-8.772738-15.789129-21.049174-15.78913-33.33075 0-12.280291 5.265184-24.561867 15.78913-33.329465l168.407528-157.87716H378.905696c-29.816773 0-50.871087-19.297967-50.871086-47.367387 0-28.065566 21.054314-47.363533 50.871086-47.363534h487.67454L698.172708 164.483694c-10.523945-8.774023-15.789129-21.049174-15.78913-33.33075 0-12.280291 5.265184-24.556728 15.78913-33.329466 8.772738-8.772738 22.805521-14.032783 35.087096-14.032783 15.78399 0 26.30922 5.260045 35.081958 14.032783l254.358002 243.834058s0 5.265184 5.265185 5.265184c8.767598 5.25876 14.032783 15.78399 12.281575 28.064281zM915.693691 118.872652c-28.065566 0-49.113455-19.297967-49.113455-45.607187v-77.18416c0-19.296683-14.037922-31.578258-33.33075-31.578259h-703.437893c-21.049174 0-33.329465 12.281576-33.329465 31.578259V773.190665c0 19.297967 14.032783 31.578258 33.329465 31.578258h703.437893c21.049174 0 35.081957-12.280291 35.081957-31.578258v-77.184161c0-26.314359 19.296683-45.611041 49.118595-45.611041 28.065566 0 49.11474 19.296683 49.11474 45.611041V773.190665c0 33.33075-14.032783 64.909009-38.589511 87.70939C903.417255 883.705576 870.087789 895.985867 835.000693 895.985867h-703.437892c-35.080673 0-68.411423-12.280291-92.968151-35.085812C14.032783 838.099674 0 806.521415 0 773.190665v-777.10936c0-33.329465 14.032783-64.907724 38.59465-87.713245 24.556728-22.805521 57.887478-35.081957 92.968151-35.081957h703.437892c35.087097 0 68.416562 12.276437 92.974574 35.081957 24.556728 22.805521 38.589511 54.383779 38.589511 87.713245v77.18416c-1.751207 26.30922-22.800381 45.607187-50.871087 45.607187z"  horiz-adv-x="1040" />

    
    <glyph glyph-name="clone" unicode="&#58907;" d="M952.311-25.329l-409.418 410.41 407.261 408.248c8.53 8.551 8.53 22.416 0 30.967-8.532 8.552-22.36 8.552-30.892 0L511.999 416.048 104.737 824.296c-8.53 8.552-22.362 8.552-30.892 0-8.53-8.552-8.53-22.417 0-30.967L481.107 385.08 71.687-25.33c-8.529-8.551-8.529-22.416 0-30.967a21.755 21.755 0 0 1 15.448-6.413c5.59 0 11.181 2.139 15.446 6.413L512 354.114l409.419-410.41a21.755 21.755 0 0 1 15.446-6.413c5.592 0 11.18 2.139 15.447 6.413 8.53 8.55 8.53 22.417 0 30.967z"  horiz-adv-x="1024" />

    
    <glyph glyph-name="prog-golang1" unicode="&#58984;" d="M544.76 413.546C367.59 397.128 185.048 359.284 1 347.348c27.962 28.628 85.342 24.944 137.124 33.094 90.956 14.322 205.29 24.004 307.338 37.836 32.928 4.458 75.876 22.258 99.298-4.732z m-174.95-66.196c-59.318-6.736-109.502-10.096-160.76-14.188-34.782-2.78-72.624 4.324-94.574-18.914 72.566-19.752 160.884 12.492 236.42 9.458 10.372 8.584 125.712-10.13 174.948 33.094-40.36 25.598-98.312-2.896-156.034-9.45z m529.57-66.204c-46.426-40.928-69.664-71.76-137.124-56.738-21.674 21.276-19.078 58.02-18.912 61.47 1.064 21.858 15.344 49.18 14.18 70.92-10.43-36.886-71.178-48.54-70.92-80.376-47.962-32.42-87.694-73.074-174.948-66.196-46.15 57.212 23.562 152.418 61.472 198.586 16.842 20.526 33.742 42.176 52.006 61.47 40.014 42.268 45.91 56.58 99.296 80.384 80.484 35.862 112.838-59.668 61.462-108.754-19.71-5.034-20.85-1.23-42.548 0 19.436 19.196 15.07 56.804 23.636 75.65-0.524 8.934-15.628 3.278-14.182 14.19-76.858-31.264-126.444-88.144-170.214-156.044-18.44-28.594-38.684-56.996-42.558-104.012 0.524-8.934 15.626-3.286 14.188-14.19 5.232-0.15 10.198-0.034 14.97 0.284v0.108h1.722c76.618 5.948 95.712 69.422 139.336 108.364-29.768 13.382-60.564-28.196-89.834-4.732 24.704 46.816 94.49 31.148 156.03 47.284 4.888-15.438 11.984-10.024 0-23.636 64.232 46.508 100.486 185.8 236.42 160.76 40.496-106.4-49.086-208.01-113.478-264.792z m80.376 226.966c-91.486-19.196-175.772-117.978-203.316-231.688 61.17-19.312 100.444 50.026 146.578 75.65 26.954 40.638 77.358 98.176 56.738 156.038z"  horiz-adv-x="1024" />

    
    <glyph glyph-name="home1" unicode="&#59188;" d="M841.142857 329.142857l0-274.285714q0-14.857143-10.857143-25.714286t-25.714286-10.857143l-219.428571 0 0 219.428571-146.285714 0 0-219.428571-219.428571 0q-14.857143 0-25.714286 10.857143t-10.857143 25.714286l0 274.285714q0 0.571429 2.857143 1.714286t2.857143 1.714286l328.571429 270.857143 328.571429-270.857143q0.571429-1.142857 0.571429-3.428571zm127.428571 39.428571l-35.428571-42.285714q-4.571429-5.142857-12-6.285714l-1.714286 0q-7.428571 0-12 4l-395.428571 329.714286-395.428571-329.714286q-6.857143-4.571429-13.714286-4-7.428571 1.142857-12 6.285714l-35.428571 42.285714q-4.571429 5.714286-4 13.428571t6.285714 12.285714l410.857143 342.285714q18.285714 14.857143 43.428571 14.857143t43.428571-14.857143l139.428571-116.571429 0 111.428571q0 8 5.142857 13.142857t13.142857 5.142857l109.714286 0q8 0 13.142857-5.142857t5.142857-13.142857l0-233.142857 125.142857-104q5.714286-4.571429 6.285714-12.285714t-4-13.428571z"  horiz-adv-x="1024" />

    
    <glyph glyph-name="h5" unicode="&#58931;" d="M152.365176 791.849942l65.435315-734.146473 293.749254-81.553411 294.51571 81.664951 65.568345 734.034932L152.381549 791.849942 152.365176 791.849942 152.365176 791.849942zM729.161948 551.740352 384.611681 551.740352l8.206916-92.206028 328.169181 0L696.256514 183.110667l-184.690396-51.17759L327.102896 183.110667l-12.607132 141.407614 90.410126 0 6.412037-71.879074 100.263541-27.01426 0.228197 0.064468 100.31573 27.077705 10.409071 116.749004L310.478264 369.516124l-24.288173 272.262894 451.030393 0L729.161948 551.740352 729.161948 551.740352 729.161948 551.740352zM729.161948 551.740352"  horiz-adv-x="1024" />

    
    <glyph glyph-name="prog-golang" unicode="&#58983;" d="M933.156 127.276C629.436 99.13 316.506 34.258 1 13.79c47.94 49.088 146.296 42.766 235.074 56.738 155.918 24.552 351.916 41.154 526.858 64.858 56.446 7.634 130.07 38.156 170.224-8.11z m-299.912-113.486c-101.684-11.542-187.716-17.306-275.584-24.318-59.626-4.75-124.498 7.418-162.124-32.42 124.398-33.86 275.802 21.408 405.29 16.218 17.782 14.704 215.502-17.368 299.912 56.738-69.198 43.88-168.546-4.982-267.494-16.218zM146.416 224.892c-79.112 98.074 40.396 261.286 105.376 340.43 28.876 35.182 57.844 72.308 89.158 105.376 68.59 72.458 78.704 97.01 170.216 137.796 137.98 61.496 193.436-102.266 105.368-186.418-33.792-8.632-35.746-2.112-72.94 0 33.316 32.902 25.832 97.376 40.52 129.678-0.898 15.32-26.79 5.624-24.31 24.32-131.758-53.586-216.758-151.104-291.794-267.492-31.612-49.012-66.32-97.708-72.958-178.316 0.898-15.304 26.79-5.624 24.32-24.32 8.966-0.248 17.482-0.048 25.666 0.5v0.174h2.954c131.342 10.19 164.078 119.008 238.856 185.76-51.034 22.938-103.822-48.322-153.998-8.11 42.342 80.25 161.982 53.404 267.476 81.048 8.382-26.448 20.542-17.174 0-40.52 110.108 79.728 172.262 318.526 405.288 275.594 69.422-182.41-84.15-356.584-194.536-453.91-79.586-70.178-119.424-123.026-235.064-97.276-37.15 36.462-32.708 99.456-32.418 105.376 1.82 37.466 26.306 84.3 24.31 121.578-17.882-63.242-122.02-83.22-121.58-137.796-82.22-55.57-150.328-125.248-299.91-113.472z m453.91 113.478c104.86-33.094 172.186 85.764 251.274 129.696 46.208 69.664 132.616 168.286 97.268 267.492-156.834-32.92-301.32-202.256-348.542-397.188z"  horiz-adv-x="1024" />

    


  </font>
</defs>
</svg>
